<svg width="394" height="66" viewBox="0 0 394 66" fill="none" xmlns="http://www.w3.org/2000/svg">
<path d="M49.5425 3.00997C49.5425 1.3225 47.9394 0.900635 46.6738 0.900635V1.15376C47.4331 1.15376 48.0238 1.40688 48.0238 1.99749C48.0238 2.33499 47.7706 2.84123 47.0113 2.84123C46.4207 2.84123 45.1551 2.50373 44.2269 2.16624C43.1301 1.74437 42.1176 1.40688 41.2739 1.40688C39.5864 1.40688 38.4052 2.67248 38.4052 4.10683C38.4052 5.37243 39.3333 5.7943 39.6708 5.96305L39.7551 5.7943C39.5864 5.62555 39.3333 5.45681 39.3333 4.95057C39.3333 4.61307 39.6708 4.02246 40.5145 4.02246C41.2739 4.02246 42.2864 4.35995 43.6363 4.78182C44.8176 5.11931 46.0832 5.37243 46.7582 5.45681V8.07239L45.4925 9.16925V9.25362L46.7582 10.3505V13.9785C46.0832 14.4004 45.3238 14.4848 44.6488 14.4848C43.3832 14.4848 42.2864 14.1473 41.3582 13.1348L44.8176 11.4473V5.62556L40.5989 7.48177C40.9364 6.38492 41.8645 5.62556 42.7926 5.11931L42.7082 4.86619C40.177 5.54118 37.8989 7.90364 37.8989 10.7723C37.8989 14.1473 40.6833 16.6785 43.8051 16.6785C47.18 16.6785 49.3737 13.9785 49.3737 11.1942H49.205C48.6987 12.2911 47.9394 13.3036 47.0113 13.8098V10.3505L48.3612 9.25362V9.16925L47.0113 8.07239V5.45681C48.2769 5.45681 49.5425 4.61307 49.5425 3.00997ZM42.202 12.2911L41.1895 12.7973C40.5989 12.0379 40.2614 11.0255 40.2614 9.59111C40.2614 9.0005 40.2614 8.32551 40.4301 7.81927L42.202 7.05991V12.2911ZM51.1456 14.2317L50.0487 15.0754L50.2175 15.2441L50.7237 14.8223L52.5799 16.5097L55.1111 14.8223L55.0268 14.6535L54.3518 15.0754L53.508 14.2317V8.49426L54.183 7.98802L55.6174 9.16925V14.316C55.6174 17.5222 54.9424 18.0285 53.508 18.5347V18.7878C55.8705 18.8722 58.0642 18.1128 58.0642 13.9785V8.40988L58.8236 7.81927L58.6548 7.65052L57.9798 8.15676L55.8705 6.38492L53.508 8.15676V1.23813H53.3393L50.3862 3.26309V3.43184C50.7237 3.60059 51.23 3.76934 51.23 4.69745L51.1456 14.2317ZM66.5859 13.3036L64.4766 14.9066L62.3673 13.2192V12.2067L66.3328 9.50674V9.42237L64.3079 6.38492L59.9204 8.74738V14.316L59.0767 14.991L59.2454 15.1598L60.0048 14.5692L62.8735 16.6785L66.6703 13.641L66.5859 13.3036ZM62.3673 11.8692V7.73489L62.536 7.65052L64.3922 10.6036L62.3673 11.8692ZM82.7013 2.25061C82.7013 1.99749 82.6169 1.74437 82.5325 1.49125H82.3638C82.1107 2.16624 81.7732 2.50373 80.9295 2.50373C80.1701 2.50373 79.6638 2.08186 79.3264 1.74437L76.8795 4.5287L77.0483 4.69745L77.892 3.93808C78.3982 4.35995 78.8201 4.69745 80.0013 4.78182V11.7848L75.0233 3.26309C74.6014 2.58811 74.0108 1.66 72.8296 1.66C71.4796 1.66 70.2984 2.84123 70.4671 4.69745H70.7202C70.8046 4.1912 71.0577 3.60059 71.6484 3.60059C72.0702 3.60059 72.4921 4.02246 72.7452 4.44432V7.22865C71.2265 7.22865 70.214 7.90364 70.214 9.16925C70.214 9.84423 70.5515 10.8567 71.564 11.1098V10.9411C71.3952 10.7723 71.3109 10.6036 71.3109 10.3505C71.3109 9.92861 71.6484 9.59111 72.239 9.59111H72.6608V13.1348C70.889 13.1348 69.4546 14.1473 69.4546 15.8348C69.4546 17.4379 70.8046 18.1972 72.3233 18.1128V17.9441C71.3952 17.8597 70.9734 17.4379 70.9734 16.8472C70.9734 16.0879 71.4796 15.7504 72.1546 15.7504C72.8296 15.7504 73.4202 16.1723 73.8421 16.6785L76.2889 13.9785L76.1202 13.8098L75.5295 14.4848C74.6014 13.641 74.0952 13.3879 72.9983 13.2192V4.78182L79.7482 16.5941H80.2545V4.78182C81.5201 4.69745 82.7013 3.68496 82.7013 2.25061ZM88.8606 13.3036L86.7512 14.9066L84.6419 13.2192V12.2067L88.6074 9.50674V9.42237L86.5825 6.38492L82.1951 8.74738V14.316L81.3513 14.991L81.5201 15.1598L82.2794 14.5692L85.1481 16.6785L88.9449 13.641L88.8606 13.3036ZM84.6419 11.8692V7.73489L84.8106 7.65052L86.6669 10.6036L84.6419 11.8692ZM102.613 7.31303L102.023 7.73489L100.42 6.38492L98.5635 8.07239L99.3229 8.83175V15.1598L97.2979 13.8942V8.663L97.9729 8.24114L96.0323 6.38492L94.1761 8.07239L94.9355 8.83175V14.9066L94.6823 15.0754L92.9105 13.8098V8.74738C92.9105 7.56615 92.3199 7.22865 91.6449 6.80679C91.0543 6.38492 90.7168 6.1318 90.7168 5.54118C90.7168 5.03494 91.223 4.78182 91.4761 4.61307V4.44432C90.8012 4.44432 89.0293 5.11931 89.0293 6.72241C89.0293 7.56615 89.4512 7.90364 89.873 8.32551C90.2949 8.74738 90.7168 9.08487 90.7168 9.84423V14.7379L89.7887 15.4129L89.9574 15.5816L90.8012 14.9066L92.7417 16.5941L94.8511 15.1598L97.2136 16.5941L101.685 13.9785V8.32551L102.782 7.48177L102.613 7.31303ZM118.307 2.67248L117.463 3.43184L115.607 1.74437L112.823 3.76934V1.91312H112.57L112.654 15.5816C112.401 15.5816 111.641 15.4129 111.051 15.2441L110.882 3.85371C110.882 3.00997 110.291 1.82874 108.773 1.82874C107.254 1.82874 106.242 3.00997 106.242 4.1912H106.495C106.579 3.68496 106.832 3.26309 107.338 3.26309C107.845 3.26309 108.266 3.60059 108.266 4.69745V7.98802C106.748 8.07239 105.82 8.91612 105.82 10.013C105.82 10.688 106.157 11.7005 107.17 11.7005V11.5317C106.832 11.363 106.748 11.1098 106.748 10.9411C106.748 10.4348 107.17 10.2661 107.845 10.2661H108.182V15.4973C106.917 15.9191 106.41 16.8472 106.41 17.8597C106.41 19.2941 107.507 20.3066 109.195 20.3066C110.376 20.3066 111.388 20.1378 112.401 19.8847C113.245 19.7159 114.341 19.4628 114.848 19.4628C115.523 19.4628 115.776 19.8003 115.776 20.2222C115.776 20.8128 115.523 21.0659 115.185 21.1503V21.319C116.535 21.0659 117.379 20.2222 117.379 18.9566C117.379 17.691 116.113 16.9316 114.763 16.9316C114.088 16.9316 112.654 17.1847 111.641 17.3535C110.46 17.6066 109.279 17.7754 108.941 17.7754C108.351 17.7754 107.676 17.5222 107.676 16.6785C107.676 16.0035 108.266 15.4129 109.701 15.4129C110.46 15.4129 111.388 15.4973 112.316 15.7504C113.329 16.0035 114.257 16.2566 115.101 16.2566C116.366 16.2566 117.463 15.8348 117.463 14.0629V3.68496L118.476 2.84123L118.307 2.67248ZM114.848 7.81927C114.595 8.07239 114.257 8.32551 113.835 8.32551C113.413 8.32551 112.991 8.07239 112.823 7.81927V4.10683L113.666 3.51622L114.848 4.61307V7.81927ZM114.848 10.3505C114.679 10.1817 114.257 9.92861 113.835 9.92861C113.413 9.92861 112.991 10.1817 112.823 10.3505V8.15676C112.991 8.32551 113.413 8.57863 113.835 8.57863C114.257 8.57863 114.679 8.32551 114.848 8.15676V10.3505ZM114.848 14.316C114.848 14.991 114.426 15.666 113.498 15.666H112.823V10.688C112.991 10.5192 113.413 10.2661 113.835 10.2661C114.257 10.2661 114.595 10.5192 114.848 10.688V14.316ZM126.407 8.32551L123.707 6.38492L119.573 8.74738V14.2317L118.729 14.9066L118.813 15.0754L119.488 14.5692L122.188 16.5941L126.407 14.0629V8.32551ZM121.851 13.641V7.56615L123.96 9.08487V15.0754L121.851 13.641ZM134.422 6.55366H134.254C134 6.72241 133.747 6.89116 133.494 6.89116C133.157 6.89116 132.735 6.72241 132.566 6.46929H132.397L130.963 8.07239L129.529 6.46929L126.997 8.15676L127.082 8.32551L127.757 7.90364L128.601 8.83175V14.1473L127.504 14.991L127.672 15.1598L128.179 14.7379L130.204 16.4254L132.819 14.6535L132.735 14.4848L131.975 14.9066L130.963 14.0629V8.15676C131.385 8.57863 131.891 9.0005 132.482 9.0005C133.663 9.08487 134.338 7.90364 134.422 6.55366ZM144.547 14.6535L141.678 16.5941L137.797 10.688L140.582 6.38492H140.75C141.088 6.72241 141.594 7.05991 142.185 7.05991C142.775 7.05991 143.197 6.72241 143.45 6.38492H143.619C143.535 8.07239 142.353 9.08487 141.51 9.08487C140.666 9.08487 140.244 8.663 139.738 8.40988L139.485 8.83175L143.703 15.0754L144.547 14.5692V14.6535ZM135.266 14.2317L134.169 15.0754L134.338 15.2441L134.844 14.8223L136.7 16.5097L139.232 14.8223L139.063 14.6535L138.388 15.0754L137.544 14.2317V1.23813H137.46L134.422 3.26309V3.43184C134.76 3.60059 135.266 3.68496 135.266 4.69745V14.2317ZM158.553 3.00997C158.553 1.3225 156.95 0.900635 155.684 0.900635V1.15376C156.444 1.15376 157.034 1.40688 157.034 1.99749C157.034 2.33499 156.781 2.84123 156.022 2.84123C155.431 2.84123 154.166 2.50373 153.238 2.16624C152.141 1.82874 151.128 1.49125 150.285 1.49125C148.597 1.49125 147.416 2.75685 147.416 4.1912C147.416 5.45681 148.344 5.87868 148.681 6.04742L148.766 5.87868C148.513 5.70993 148.26 5.54118 148.26 5.03494C148.26 4.69745 148.597 4.10683 149.441 4.10683C150.2 4.10683 151.213 4.44432 152.563 4.86619C153.744 5.20369 155.009 5.45681 155.684 5.54118V8.15676L154.419 9.25362V9.33799L155.684 10.4348V14.0629C155.009 14.4848 154.25 14.5692 153.575 14.5692C152.31 14.5692 151.213 14.2317 150.285 13.2192L153.744 11.5317V5.62556L149.525 7.48177C149.947 6.38492 150.875 5.62556 151.719 5.03494L151.635 4.86619C149.103 5.54118 146.825 7.81927 146.825 10.688C146.825 14.0629 149.61 16.5941 152.731 16.5941C156.106 16.5941 158.3 13.8942 158.3 11.1098H158.131C157.625 12.2067 156.866 13.2192 155.938 13.7254V10.2661L157.288 9.16925V9.08487L156.022 7.98802V5.45681C157.288 5.45681 158.553 4.61307 158.553 3.00997ZM151.213 12.2911L150.2 12.7973C149.61 12.0379 149.272 11.0255 149.272 9.59111C149.272 9.0005 149.356 8.32551 149.525 7.81927L151.297 7.05991L151.213 12.2911ZM161.506 2.16624H161.422L159.734 3.60059V3.68496L161.169 5.28806H161.337L163.025 3.85371V3.76934L161.506 2.16624ZM164.037 14.6535L163.362 15.0754L162.519 14.2317V8.40988L163.362 7.81927L163.194 7.65052L162.603 8.15676L161.084 6.38492L158.638 8.07239L158.806 8.32551L159.397 7.90364L160.156 8.83175V14.316L159.059 15.1598L159.144 15.3285L159.734 14.9066L161.591 16.5941L164.122 14.9066L164.037 14.6535ZM178.128 14.5692L177.537 14.991L176.609 14.1473V8.40988L177.453 7.73489L177.284 7.56615L176.609 8.15676L174.669 6.38492L172.137 8.15676L170.197 6.38492L167.834 8.15676L166.316 6.38492L163.869 8.07239L163.953 8.32551L164.544 7.90364L165.387 8.83175V14.316L164.712 14.991L166.653 16.5941L168.509 14.9066L167.75 14.1473V8.40988L168.509 7.90364L169.775 9.08487V14.1473L169.1 14.8223L171.04 16.4254L172.897 14.7379L172.137 13.9785V8.40988L172.812 7.98802L174.162 9.16925V14.2317L173.572 14.8223L175.512 16.5941L178.128 14.8223V14.5692ZM185.468 13.3036L183.359 14.9066L181.25 13.2192V12.2067L185.215 9.50674V9.42237L183.19 6.38492L178.803 8.74738V14.4848L181.756 16.5941L185.553 13.5567L185.468 13.3036ZM181.25 11.8692V7.73489L181.418 7.65052L183.275 10.6036L181.25 11.8692ZM193.146 11.1098L191.543 9.84423C192.64 8.91612 193.062 7.65052 193.062 6.80679V6.30054H192.893C192.724 6.72241 192.387 7.14428 191.712 7.14428C191.037 7.14428 190.615 6.80679 190.193 6.30054L186.396 8.40988V11.4473L187.831 12.5442C186.396 13.8098 186.143 14.6535 186.143 15.3285C186.143 16.1723 186.565 16.7629 187.24 17.016L187.325 16.8472C187.156 16.6785 186.987 16.5941 186.987 16.1723C186.987 15.9191 187.325 15.4973 188 15.4973C188.843 15.4973 189.35 16.0879 189.603 16.341L193.231 14.1473V11.1098H193.146ZM192.218 8.57863C191.628 9.59111 190.362 10.6036 189.603 11.1098L188.674 10.3505V7.3974C189.012 8.24114 189.94 8.91612 190.868 8.91612C191.459 8.91612 191.796 8.83175 192.218 8.57863ZM190.784 15.3285C190.362 14.4004 189.35 13.7254 188.337 13.7254C188.084 13.7254 187.409 13.7254 186.734 14.1473C187.156 13.4723 188.253 12.2911 189.687 11.4473L190.699 12.2911L190.784 15.3285Z" fill="#05294B"/>
<path d="M260.492 1.60983H248.072V7.94467H260.492V1.60983Z" fill="#05294B"/>
<path d="M223.231 1.60983V7.94467H229.441V20.6098H235.651V7.94467H241.862V1.60983H223.231Z" fill="#05294B"/>
<path d="M241.862 20.6098H248.072H260.497V14.275H248.072V7.9447H241.862V20.6098Z" fill="#05294B"/>
<path d="M276.328 6.39908H267.201V9.02898H270.256V17.2971H273.273V9.02898H276.328V6.39908Z" fill="#05294B"/>
<path d="M279.769 8.95053C277.623 8.95053 276.032 10.3993 276.032 13.2183C276.032 15.7237 277.388 17.4678 279.847 17.4678C281.022 17.4766 282.176 17.157 283.179 16.545L282.108 14.7548C281.465 15.13 280.735 15.3289 279.99 15.3315C279.812 15.3443 279.633 15.3199 279.464 15.2599C279.296 15.1998 279.142 15.1054 279.011 14.9827C278.881 14.86 278.778 14.7115 278.708 14.5468C278.639 14.3821 278.604 14.2047 278.606 14.0258H283.405C283.405 13.8828 283.405 13.712 283.405 13.4814C283.409 10.4316 282.007 8.95053 279.769 8.95053ZM278.602 12.2679C278.698 11.4559 279.063 11.0221 279.695 11.0221C280.516 11.0221 280.798 11.442 280.941 12.2679H278.602Z" fill="#05294B"/>
<path d="M288.72 15.193C287.959 15.193 287.567 14.524 287.567 13.2321C287.567 11.9402 287.927 11.2251 288.642 11.2251C289.251 11.2251 289.514 11.5665 289.901 12.2816L291.835 10.8191C291.119 9.6656 290.229 8.97351 288.688 8.97351C286.072 8.97351 284.794 10.7037 284.794 13.209C284.794 15.9774 286.229 17.4907 288.628 17.4907C290.077 17.4907 290.962 16.9463 291.913 15.5437L290.137 14.1595C289.624 14.8977 289.251 15.193 288.72 15.193Z" fill="#05294B"/>
<path d="M298.373 8.95057C297.625 8.93583 296.896 9.18956 296.32 9.66576V5.94696L293.514 7.06813V17.2971H296.32V12.6233C296.32 11.599 296.675 11.3175 297.27 11.3175C297.865 11.3175 298.193 11.599 298.193 12.6555V17.2971H301.012V12.3003C301.021 10.1502 300.163 8.95057 298.373 8.95057Z" fill="#05294B"/>
<path d="M307.78 14.8379C306.47 14.8379 305.934 13.5137 305.934 11.848C305.934 10.1824 306.479 8.85825 307.743 8.85825C308.74 8.85825 309.128 9.49501 309.501 10.5054L312.241 9.43503C311.494 7.37721 310.438 6.20529 307.757 6.20529C304.832 6.20529 302.774 8.32305 302.774 11.8296C302.774 15.0593 304.504 17.4493 307.743 17.4493C310.327 17.4493 311.54 16.0652 312.274 14.6303L309.722 13.2829C309.132 14.3211 308.726 14.8379 307.78 14.8379Z" fill="#05294B"/>
<path d="M316.777 9.71183V9.13047H313.976V17.2971H316.777V12.8447C316.777 11.8481 317.197 11.5205 317.884 11.5205C318.139 11.533 318.387 11.6006 318.612 11.7185C318.837 11.8364 319.035 12.0018 319.19 12.2033L319.845 9.292C319.36 9.00954 318.795 8.89747 318.239 8.97353C317.683 9.04964 317.168 9.30954 316.777 9.71183Z" fill="#05294B"/>
<path d="M325.871 13.7952C325.871 14.8194 325.511 15.1009 324.948 15.1009C324.385 15.1009 324.025 14.8194 324.025 13.7628V9.13049H321.206V14.1181C321.206 16.2682 322.064 17.4678 323.854 17.4678C324.598 17.483 325.322 17.229 325.894 16.7526V17.2971H328.676V9.13049H325.857L325.871 13.7952Z" fill="#05294B"/>
<path d="M335.597 8.95049C334.848 8.93667 334.118 9.19021 333.539 9.66562V9.13042H330.739V17.297H333.539V12.6231C333.539 11.5989 333.899 11.3174 334.489 11.3174C335.08 11.3174 335.413 11.5989 335.413 12.6555V17.297H338.232V12.3002C338.236 10.1501 337.378 8.95049 335.597 8.95049Z" fill="#05294B"/>
<path d="M343.809 15.193C343.043 15.193 342.656 14.524 342.656 13.2321C342.656 11.9402 343.016 11.2251 343.731 11.2251C344.34 11.2251 344.603 11.5665 344.991 12.2816L346.924 10.8191C346.208 9.6656 345.318 8.97351 343.777 8.97351C341.161 8.97351 339.883 10.7037 339.883 13.209C339.883 15.9774 341.318 17.4907 343.717 17.4907C345.161 17.4907 346.052 16.9463 347.002 15.5437L345.226 14.1595C344.714 14.8977 344.363 15.193 343.809 15.193Z" fill="#05294B"/>
<path d="M353.462 8.95057C352.714 8.93583 351.986 9.18956 351.409 9.66576V5.94696L348.604 7.06813V17.2971H351.409V12.6233C351.409 11.599 351.764 11.3175 352.359 11.3175C352.954 11.3175 353.282 11.599 353.282 12.6555V17.2971H356.101V12.3003C356.11 10.1502 355.252 8.95057 353.462 8.95057Z" fill="#05294B"/>
<path d="M109.81 48.5937C109.81 47.3717 110.19 46.9503 110.822 46.9503C111.454 46.9503 111.959 47.2032 112.549 48.5937L116.131 56.7261V61.8669C116.131 63.0888 115.625 63.4259 114.235 63.5945V63.9316H120.85V63.5945C119.418 63.4259 118.954 63.0467 118.954 61.8669V56.7261L122.409 48.8886C123.084 47.3717 123.758 47.0346 124.769 46.8661V46.529H119.923V46.8661C121.567 47.0346 122.156 47.4981 121.693 48.5937L118.659 55.5463L115.541 48.4251C115.12 47.456 115.372 47.161 117.184 46.9082V46.5711H106.776V46.9082C108.42 47.161 108.925 47.456 108.925 48.6358V58.1588L101.299 46.5711H97.5485V46.9082C98.7704 47.0768 99.1497 47.456 99.1497 48.6358V61.909C99.1497 63.131 98.8126 63.5523 98.3912 63.5523C98.012 63.5523 97.8013 63.3838 97.2535 61.909L91.6071 46.4868H91.27L85.8344 61.2348C85.2444 62.8781 84.3174 63.4259 83.3904 63.6366V63.9737H88.3626V63.6366C86.635 63.4681 86.0872 62.7939 86.4664 61.6983L87.6884 58.3273H92.8291L94.0089 61.4876C94.5146 62.9203 94.2196 63.3417 92.7448 63.5945V63.9316H102.184V63.5945C100.54 63.3417 100.035 63.0467 100.035 61.8669V49.9842L109.263 63.9737H109.81V48.5937ZM43.276 55.2092C43.276 49.8157 45.8463 46.9925 48.838 46.9925C50.6078 46.9925 51.7455 47.3717 52.4197 48.088C52.9253 48.5937 53.3046 49.31 53.7259 50.4477H54.063V46.8239C52.3354 46.4868 50.7763 46.2762 49.2173 46.2762C44.7086 46.2762 40.0314 49.1836 40.0314 55.2092C40.0314 61.2348 44.7086 64.1423 48.9223 64.1423C50.7763 64.1423 52.4197 63.8473 53.9788 63.3838L54.4844 59.9707L54.1894 59.8864C53.8102 60.6027 53.3467 61.2348 52.8411 61.7826C51.7455 62.8781 50.2707 63.4681 48.7959 63.4681C45.9306 63.4259 43.276 60.687 43.276 55.2092ZM80.6515 55.7149C80.2723 55.7149 79.7666 55.6727 79.261 55.5884V47.161H80.6515C82.969 47.161 83.9803 48.383 83.9803 51.4169C83.9803 54.4929 82.9269 55.7149 80.6515 55.7149ZM26.5054 46.529V50.7005H26.8425C27.3482 48.0459 28.4016 47.2032 30.1713 47.2032H31.0141V61.8669C31.0141 63.0888 30.5084 63.4259 29.1179 63.5945V63.9316H35.7334V63.5945C34.3008 63.4259 33.8373 63.0467 33.8373 61.8669V47.161H34.68C36.4498 47.161 37.5032 48.0038 38.0088 50.6584H38.3459V46.4868H26.5054V46.529ZM21.2383 64.1423C24.1036 64.1423 27.1375 62.4989 27.1375 59.1279C27.1375 57.1475 26.084 55.5042 24.23 54.4929L20.9433 52.681C19.2157 51.7118 18.7101 50.827 18.7101 49.5628C18.7101 48.1302 19.7635 46.9925 21.7439 46.9925C22.7131 46.9925 23.4294 47.2453 24.0193 47.7931C24.525 48.2987 25.0306 49.1415 25.4941 50.6584H25.7891V46.8239C24.6092 46.4868 23.3873 46.2762 21.9546 46.2762C19.1314 46.2762 17.0246 48.0459 17.0246 51.0376C17.0246 52.9338 18.078 54.6614 19.8056 55.6727L22.8395 57.3582C24.5671 58.3273 25.1149 59.2544 25.1149 60.6449C25.1149 62.2882 23.4294 63.4681 21.5754 63.4681C20.3534 63.4681 19.3421 63.0467 18.6258 62.3304C18.1623 61.8669 17.6566 61.1505 17.3195 60.2235H19.3V59.8864C18.7522 59.76 18.4151 59.6757 17.9516 58.5802L14.075 49.3522H13.7379L9.94556 58.3695C9.43991 59.5915 9.10281 59.8021 8.5129 59.8864V60.2235H11.8839V59.8864C10.6619 59.76 10.3248 59.1701 10.6197 58.4116L11.2097 56.979H14.6228L15.3812 58.7487C15.7183 59.5493 15.2127 59.76 13.9907 59.8443V60.1814H16.6875V63.5102C18.0359 63.8894 19.7635 64.1423 21.2383 64.1423ZM64.0495 63.9737L69.0638 50.0263L69.4431 61.909C69.4852 63.0888 69.0217 63.4259 67.589 63.5945V63.9316H81.41V63.5945C79.7666 63.3417 79.261 63.0467 79.261 61.8669V56.2626C79.8088 56.3469 80.3566 56.389 80.7779 56.389C84.1067 56.389 86.9721 55.1671 86.9721 51.459C86.9721 47.7509 84.1067 46.529 80.7779 46.529H74.8366V46.8661C76.0586 47.0346 76.4378 47.4139 76.4378 48.5937V61.8669C76.4378 63.0888 75.9322 63.5945 74.5416 63.5945H74.4995C73.0247 63.5945 72.3926 63.0467 72.3505 61.909L71.8449 48.6358C71.8027 47.4139 72.2241 47.0346 73.5303 46.8661V46.529H69.4431L64.9765 59.0437L60.51 46.529H56.1278V46.8661C57.434 47.0346 57.8554 47.456 57.8132 48.6358L57.3497 61.3612C57.3076 62.6253 56.6334 63.3838 55.4114 63.5945V63.9316H60.0465V63.5945C58.8667 63.4259 58.1925 62.6675 58.2346 61.3612L58.6138 49.7735L63.7124 63.9316L64.0495 63.9737ZM50.6078 60.3078C52.8411 60.3078 55.7064 58.3273 55.7064 55.2092C55.7064 52.1332 52.8832 50.1106 50.6078 50.1106C48.3745 50.1106 45.5092 52.0911 45.5092 55.2092C45.5092 58.2852 48.3324 60.3078 50.6078 60.3078ZM50.6078 50.827C52.0405 50.827 53.0096 52.0068 53.0096 55.2092C53.0096 58.4538 51.9983 59.5915 50.6078 59.5915C49.1751 59.5915 48.206 58.4116 48.206 55.2092C48.206 51.9647 49.1751 50.827 50.6078 50.827ZM92.6184 57.611H87.9412L90.2588 51.2062L92.6184 57.611ZM14.4121 56.3048H11.5468L12.9794 52.8074L14.4121 56.3048ZM8.93427 57.1896H9.27136V51.9647H8.93427C8.38649 53.8187 7.8387 54.2401 6.82741 54.2401H4.88911V47.161H7.96512C9.73487 47.161 10.7883 48.0038 11.2939 50.6584H11.631V46.4868H0.464722V46.8239C1.6867 46.9925 2.06593 47.3717 2.06593 48.5516V61.8247C2.06593 63.0467 1.6867 63.3838 0.464722 63.5523V63.8894H7.0381V63.5523C5.39476 63.2995 4.88911 63.0046 4.88911 61.8247V54.8721H6.82741C7.79657 54.9142 8.38649 55.3356 8.93427 57.1896Z" fill="#05294B"/>
<path d="M238.211 48.3926V62.075H244.95C246.833 62.075 247.923 61.7775 248.716 61.0835C249.707 60.1912 250.202 58.6048 250.202 55.2338C250.202 51.8628 249.707 50.2764 248.716 49.3841C247.923 48.69 246.833 48.3926 244.95 48.3926H238.211ZM247.427 55.2338C247.427 58.2082 247.229 58.9022 246.635 59.2988C246.238 59.5963 245.743 59.6954 244.752 59.6954H240.986V50.673H244.752C245.743 50.673 246.238 50.673 246.635 51.0696C247.229 51.5653 247.427 52.2594 247.427 55.2338ZM253.671 65.0994H233.9V45.319H253.671V65.0994ZM217.747 50.673V48.3926H229.441V52.7551H226.963V50.673H222.206V53.9449H225.972V56.1261H222.206V59.7946H227.063V57.415H229.539V62.075H217.748V59.7946H219.63V50.673H217.747ZM207.144 58.5057C207.144 59.9929 207.242 61.0835 207.44 61.9758H210.117C210.017 61.2818 209.918 59.9929 209.918 58.3074C209.819 56.3244 209.224 56.027 207.837 55.7295C209.422 55.4321 210.117 54.738 210.117 52.2594C210.117 50.2764 209.819 49.4832 209.224 48.9875C208.828 48.5909 208.135 48.3926 207.044 48.3926H198.719V62.075H201.494V56.721H205.36C206.153 56.721 206.449 56.8201 206.747 57.0184C207.045 57.2167 207.144 57.5142 207.144 58.5057ZM201.494 54.5398V50.7721H205.954C206.549 50.7721 206.747 50.8713 206.846 50.9704C207.044 51.1687 207.242 51.4662 207.242 52.6559C207.242 53.8457 207.044 54.2423 206.846 54.4406C206.747 54.5398 206.549 54.6389 205.954 54.6389L201.494 54.5398ZM214.081 65.0994H194.261V45.319H214.031V65.0994H214.081ZM189.107 59.7946V62.075H179.692V59.7946H183.062V50.673H179.692V48.3926H189.107V50.673H185.737V59.7946H189.107ZM173.202 48.3926H170.625L168.742 59.1997L166.562 49.1858C166.463 48.4918 166.165 48.3926 165.571 48.3926H164.183C163.589 48.3926 163.292 48.5909 163.192 49.1858L161.012 59.1997L159.129 48.3926H156.355L159.03 61.3809C159.129 61.9758 159.328 62.075 160.021 62.075H161.904C162.499 62.075 162.697 61.9758 162.895 61.3809L164.976 51.9619L167.057 61.3809C167.156 61.9758 167.355 62.075 168.048 62.075H169.832C170.427 62.075 170.724 61.9758 170.823 61.3809L173.202 48.3926ZM174.589 65.0994H154.769V45.319H174.54V65.0994H174.589Z" fill="#05294B"/>
<path fill-rule="evenodd" clip-rule="evenodd" d="M339.164 51.2454C337.852 51.2454 336.743 51.8182 336.078 52.5204V46.4592H331.513V63.5341H336.078V56.6044C336.078 55.8467 336.614 55.2739 337.482 55.2739C338.314 55.2739 338.739 55.6989 338.739 56.6783V63.5526H343.303V55.4956C343.303 52.7976 341.714 51.2454 339.164 51.2454ZM293.151 55.4401L298.306 46.4961H302.612V63.9221H298.306V55.1259L294.906 61.0024L294.093 62.4438H292.208L291.561 61.335L287.976 55.1259V63.9221H283.671V46.4961H287.976H287.995L293.151 55.4401ZM311.186 55.3109C312.387 55.3109 313.219 56.2903 313.219 57.6023C313.219 58.9144 312.387 59.8938 311.186 59.8938C309.93 59.8938 309.08 58.8774 309.08 57.6023C309.08 56.3827 309.93 55.3109 311.186 55.3109ZM309.745 51.2639C307.102 51.2639 304.497 53.8325 304.497 57.6393C304.497 61.3721 307.102 63.9407 309.745 63.9223C311.574 63.9223 312.738 62.9983 313.422 62.0374L313.847 63.5896H317.709V51.5965H313.847L313.422 53.1488C312.738 52.2063 311.574 51.2639 309.745 51.2639ZM328.908 52.1139V55.7729C328.058 55.2924 326.506 54.8489 325.194 54.8489C324.436 54.8489 324.03 54.9967 324.03 55.2924C324.03 55.5881 324.455 55.7729 325.619 56.0316C327.689 56.4751 329.758 57.2142 329.758 59.8198C329.758 62.333 327.781 63.9223 324.177 63.9223C322.33 63.9223 320.814 63.4972 319.798 62.9429V59.0252C320.888 59.7459 322.2 60.3373 323.974 60.3373C324.861 60.3373 325.379 60.1894 325.379 59.8568C325.379 59.5009 324.835 59.3626 323.633 59.057C323.524 59.0294 323.41 59.0004 323.29 58.9698C321.443 58.4893 319.65 57.5838 319.65 55.3294C319.65 52.9825 321.572 51.2639 324.972 51.2639C326.395 51.2639 327.91 51.578 328.908 52.1139ZM353.578 57.6023C353.578 56.2903 352.746 55.3109 351.545 55.3109C350.288 55.3109 349.438 56.3827 349.438 57.6023C349.438 58.8774 350.288 59.8938 351.545 59.8938C352.746 59.8938 353.578 58.9144 353.578 57.6023ZM344.856 57.6393C344.856 53.8325 347.461 51.2639 350.104 51.2639C351.933 51.2639 353.097 52.2063 353.781 53.1488L354.206 51.5965H358.068V63.5896H354.206L353.781 62.0374C353.097 62.9983 351.933 63.9223 350.104 63.9223C347.461 63.9407 344.856 61.3721 344.856 57.6393ZM366.883 59.8567C365.682 59.8567 364.85 58.8958 364.85 57.5653C364.85 56.2533 365.663 55.2739 366.865 55.2739C368.121 55.2739 368.971 56.3272 368.971 57.5838C368.971 58.8589 368.121 59.8567 366.883 59.8567ZM368.454 51.2454C366.975 51.2454 365.571 52.0584 364.887 53.0748L364.906 46.4592H360.36V63.5526H364.222L364.647 62.0003C365.312 62.9428 366.513 63.8852 368.251 63.8852C371.004 63.8852 373.554 61.409 373.554 57.5653C373.554 53.7216 371.207 51.2454 368.454 51.2454ZM379.837 46.4592H375.291V63.5526H379.837V46.4592ZM387.71 54.738C388.689 54.738 389.243 55.4587 389.262 56.2903H385.769C386.083 55.3293 386.823 54.738 387.71 54.738ZM385.936 58.8035H393.438C393.512 58.3415 393.549 57.8795 393.531 57.436C393.531 53.4075 390.925 51.2824 387.728 51.2824C384.199 51.2824 381.519 53.888 381.519 57.6393C381.519 61.2612 384.014 63.9592 388.597 63.9592C390.112 63.9592 391.498 63.6635 392.736 63.0722V59.5981C391.683 60.0601 390.537 60.4851 389.243 60.4851C387.821 60.4851 386.508 59.9492 385.936 58.8035Z" fill="#05294B"/>
</svg>
